<?xml version="1.0" encoding="UTF-8"?>
<!DOCTYPE svg PUBLIC "-//W3C//DTD SVG 1.1//EN" "http://www.w3.org/Graphics/SVG/1.1/DTD/svg11.dtd">
<!-- Creator: CorelDRAW 2021 (64-Bit) -->
<svg xmlns="http://www.w3.org/2000/svg" xml:space="preserve" width="800mm" height="400mm" version="1.1" style="shape-rendering:geometricPrecision; text-rendering:geometricPrecision; image-rendering:optimizeQuality; fill-rule:evenodd; clip-rule:evenodd"
viewBox="0 0 80000 40000"
 xmlns:xlink="http://www.w3.org/1999/xlink"
 xmlns:xodm="http://www.corel.com/coreldraw/odm/2003">
 <defs>
  <style type="text/css">
   <![CDATA[
    .str1 {stroke:#FEFEFE;stroke-width:1763.89;stroke-miterlimit:22.9256}
    .str0 {stroke:#FEFEFE;stroke-width:1270;stroke-miterlimit:22.9256}
    .fil0 {fill:none}
    .fil1 {fill:#FEFEFE}
    .fil2 {fill:#FEFEFE;fill-rule:nonzero}
   ]]>
  </style>
 </defs>
 <g id="Слой_x0020_1">
  <metadata id="CorelCorpID_0Corel-Layer"/>
  <polygon class="fil0 str0" points="76899.78,13866.8 76891.15,25961.47 8089.38,25961.47 8089.38,13866.8 "/>
  <path class="fil1" d="M10001.03 16042.83l-5.12 -278.3 2124.91 3.06 9.99 275.24 0 2757.29 2341.83 -3023.15 2626.84 1.26 -3302.56 4170.92 3168.81 4122.68 -2445.23 -3.96c-626.38,-819.34 -2313.13,-2650.09 -2389.69,-2783.25l0 2792.3 -2129.78 -7.8 0 -8026.29z"/>
  <path class="fil1" d="M71165.63 18822.28l1433.51 -3062.23 2273.14 5.31c0,95.15 -2359.59,4398.85 -2641.75,4912.39l0 3398.01 -2132.51 0 2.72 -274.14 0 -3134.36 -2661.65 -4904.15 2293.03 -4.5c20.48,10.49 20.48,55.1 40.96,76.07 20.48,20.96 40.96,52.41 61.44,94.34l1331.11 2893.26z"/>
  <polygon class="fil1" points="44758.32,16214.44 44758.32,15759.85 46880.06,15757.82 46867.63,16210.8 46867.63,22139.49 49878,22139.49 50120.55,22142.68 50123.74,22383.97 50123.74,24064.78 49878,24064.78 45004.06,24064.78 44758.32,24064.78 "/>
  <path class="fil1" d="M21668.1 19139.05c122.87,0 225.26,20.37 327.65,71.3 102.4,40.75 184.31,101.87 266.23,173.18 81.91,71.31 143.35,162.99 184.31,254.67 40.95,101.87 61.43,213.92 61.43,336.16 0,112.06 -20.48,213.92 -61.43,315.79 -40.96,101.87 -102.4,183.36 -184.31,254.67 -81.92,81.49 -163.83,132.43 -266.23,173.18 -102.39,40.74 -204.78,61.11 -327.65,61.11 -102.4,0 -225.27,-20.37 -307.19,-61.11 -102.39,-40.75 -204.78,-101.88 -266.22,-173.18 -81.91,-71.31 -143.35,-162.99 -184.31,-264.86 -40.95,-91.68 -61.43,-203.73 -61.43,-305.6 0,-122.24 20.48,-234.29 61.43,-336.16 40.96,-91.68 102.4,-183.36 184.31,-254.67 61.44,-71.31 163.83,-132.43 266.22,-173.18 81.92,-50.93 204.79,-71.3 307.19,-71.3zm-4218.62 825.12c0,-387.09 61.44,-753.82 163.83,-1110.35 102.39,-356.53 225.27,-682.51 409.58,-998.3 184.3,-305.6 409.57,-590.84 655.31,-845.5 245.75,-254.67 532.45,-468.59 839.63,-641.77 327.66,-183.36 655.32,-325.97 1003.46,-427.84 368.61,-91.69 737.23,-142.61 1105.85,-142.61 389.09,0 757.71,50.92 1126.33,142.61 348.14,101.87 675.79,244.48 1003.45,427.84 307.18,173.18 573.41,387.1 839.63,641.77 245.75,254.66 471.01,539.9 655.32,845.5 184.31,315.79 307.18,641.77 409.57,998.3 102.4,356.53 163.83,723.26 163.83,1110.35 0,387.1 -61.43,753.83 -163.83,1110.36 -102.39,346.35 -225.26,682.51 -409.57,988.11 -184.31,305.61 -409.57,580.65 -655.32,835.32 -266.22,254.67 -532.45,468.59 -839.63,651.95 -327.66,183.36 -655.31,315.79 -1003.45,417.66 -368.62,101.86 -737.24,142.61 -1126.33,142.61 -368.62,0 -737.24,-40.75 -1105.85,-142.61 -348.14,-101.87 -675.8,-234.3 -1003.46,-417.66 -307.18,-183.36 -593.88,-397.28 -839.63,-651.95 -245.74,-254.67 -471.01,-529.71 -655.31,-835.32 -184.31,-305.6 -307.19,-641.76 -409.58,-988.11 -102.39,-356.53 -163.83,-723.26 -163.83,-1110.36zm2129.79 -10.19c0,305.61 40.95,590.84 143.35,845.51 102.39,264.85 245.74,488.96 430.05,682.51 184.31,193.55 409.58,346.35 655.32,458.41 245.74,112.05 532.45,162.98 819.15,162.98 307.18,0 593.88,-50.93 839.63,-162.98 245.74,-112.06 471.01,-264.86 655.31,-458.41 184.31,-193.55 327.66,-417.66 430.06,-682.51 102.39,-254.67 163.83,-539.9 163.83,-845.51 0,-295.41 -61.44,-570.45 -163.83,-835.3 -102.4,-264.86 -245.75,-488.97 -430.06,-692.7 -184.3,-193.56 -409.57,-346.36 -655.31,-458.41 -245.75,-112.05 -532.45,-173.17 -839.63,-173.17 -286.7,0 -573.41,61.12 -819.15,173.17 -245.74,112.05 -471.01,264.85 -655.32,458.41 -184.31,203.73 -327.66,427.84 -430.05,692.7 -102.4,264.85 -143.35,539.89 -143.35,835.3z"/>
  <path class="fil1" d="M38393.28 24097.24l42.16 -1934.18 -674.54 0 1243.67 -3668.64c210.79,620.2 421.58,1229.89 632.38,1839.58 189.71,609.68 379.42,1219.37 590.21,1829.06l-716.69 0 42.16 1934.18 3688.84 0c-1159.35,-3016.9 -2213.3,-5550.26 -3330.5,-8335.91l-1876.04 0 -3225.1 8325.4 3583.45 10.51z"/>
  <path class="fil2" d="M53420.35 21506.16c-669.19,0 -1239.64,0 -1897.86,0 -43.87,3793.09 6209.16,3731.51 6209.16,110.84 0,-2155.16 -1491.94,-2413.79 -3016.81,-2598.51 -691.13,-86.21 -1261.58,-221.68 -1217.7,-874.39 65.82,-1022.16 2128.23,-1120.68 2128.23,24.63 669.18,0 1173.82,0 1864.94,0 43.89,-3719.19 -5923.93,-3719.19 -5858.11,0 21.94,1871.92 1118.96,2512.31 2786.44,2647.78 767.92,49.26 1404.19,184.73 1404.19,788.17 0,1009.85 -2402.48,997.54 -2402.48,-98.52z"/>
  <line class="fil0 str1" x1="54585.66" y1="14430.71" x2="54585.66" y2= "15631.33" />
  <path class="fil1" d="M59286.41 15744.64l2124.91 3.06 9.99 275.87 0 2763.5 2341.83 -3029.97 2626.84 1.27 -3302.56 4180.32 3168.81 4131.98 -2445.23 -3.97c-626.38,-821.19 -2313.13,-2656.07 -2389.69,-2789.53l0 2798.59 -2129.78 -7.81 -5.12 -8323.31z"/>
  <line class="fil0 str1" x1="54626.95" y1="24215.21" x2="54626.95" y2= "25415.83" />
  <path class="fil1" d="M31482.6 15742.61l-42.16 1934.18 674.53 0 -1243.67 3668.64c-210.79,-620.2 -421.58,-1229.89 -632.37,-1839.58 -189.72,-609.68 -379.43,-1219.37 -590.22,-1829.06l716.69 0 -42.15 -1934.18 -3688.85 -0.01c1159.35,3016.91 2213.3,5550.27 3330.49,8335.91l1876.04 0.01 3225.11 -8325.4 -3583.44 -10.51z"/>
 </g>
</svg>
