<svg width="601" height="748" viewBox="0 0 601 748" fill="none" xmlns="http://www.w3.org/2000/svg">
<path d="M600.7 530.3C600.7 650.3 504.9 747.3 383.7 747.3C263.7 747.3 167.9 652.7 167.9 530.3C167.9 472.7 189.7 421.8 224.3 383.6L77.6 530.3L0.600006 453.3L166.1 289.6C188.5 267.2 200 238.1 200 206V0.600006H308.5V206C308.5 269 286.1 322.4 242.4 366L237.5 370.8C275.7 335.6 327.8 314.4 383.6 314.4C506.8 314.5 600.7 412.1 600.7 530.3ZM502.5 530.3C502.5 466 449.2 413.9 383.7 413.9C317.6 413.9 266.1 468.5 266.1 530.3C266.1 593.9 318.2 647.9 383.7 647.9C451.6 647.9 502.5 592.8 502.5 530.3Z" fill="white"/>
</svg>
